<svg width="24" height="20" viewBox="0 0 24 20" xmlns="http://www.w3.org/2000/svg"><title>Twitter Logo</title><g id="Symbols" fill="none" fill-rule="evenodd"><g id="Icons/Social-Media/Twitter/Black" transform="translate(0 -2)" fill="#323228"><path d="M7.548 21.505c9.057 0 14.01-7.503 14.01-14.01 0-.213-.005-.425-.014-.636A10.017 10.017 0 0 0 24 4.309a9.831 9.831 0 0 1-2.828.775 4.941 4.941 0 0 0 2.166-2.723 9.866 9.866 0 0 1-3.127 1.195 4.925 4.925 0 0 0-8.391 4.49A13.98 13.98 0 0 1 1.67 2.902a4.907 4.907 0 0 0-.666 2.475 4.92 4.92 0 0 0 2.19 4.098 4.888 4.888 0 0 1-2.23-.616v.063a4.926 4.926 0 0 0 3.95 4.827 4.938 4.938 0 0 1-2.224.085 4.93 4.93 0 0 0 4.6 3.42 9.88 9.88 0 0 1-6.115 2.108A9.9 9.9 0 0 1 0 19.293a13.94 13.94 0 0 0 7.548 2.212" id="Twitter-Logo"/></g></g></svg>