<svg width="24" height="24" viewBox="0 0 24 24" xmlns="http://www.w3.org/2000/svg"><title>Combined Shape</title><g id="Symbols" fill="none" fill-rule="evenodd"><g id="Icons/24x24/Error/Black" fill="#323228"><path d="M24 12c0 6.627-5.373 12-12 12-6.628 0-12-5.373-12-12S5.372 0 12 0c6.627 0 12 5.373 12 12zM5.553 9.102l2.546 2.546a.5.5 0 0 1 0 .707l-2.546 2.547c-.58.59-.58 1.54 0 2.12L6.97 18.44c.58.59 1.53.59 2.12 0l2.547-2.547a.5.5 0 0 1 .707 0l2.557 2.547c.58.59 1.529.59 2.12 0l1.408-1.42c.59-.58.59-1.53 0-2.12l-2.547-2.546a.5.5 0 0 1 0-.707l2.547-2.546a1.506 1.506 0 0 0 0-2.13l-1.408-1.41a1.508 1.508 0 0 0-2.131 0L12.345 8.11a.5.5 0 0 1-.707 0L9.09 5.563a1.493 1.493 0 0 0-2.12 0L5.553 6.972c-.58.59-.58 1.54 0 2.13z" id="Combined-Shape"/></g></g></svg>