<svg width="24" height="24" viewBox="0 0 24 24" xmlns="http://www.w3.org/2000/svg"><path d="M23.562 17.903c.58.59.58 1.54 0 2.13l-3.54 3.529a1.488 1.488 0 0 1-2.119 0l-5.547-5.546a.5.5 0 0 0-.707 0l-5.546 5.546a1.506 1.506 0 0 1-2.131 0l-3.53-3.53a1.506 1.506 0 0 1 0-2.13l5.547-5.546a.5.5 0 0 0 0-.707L.442 6.103a1.493 1.493 0 0 1 0-2.12l3.53-3.54a1.49 1.49 0 0 1 2.12 0l5.557 5.546a.498.498 0 0 0 .706 0L17.903.443a1.49 1.49 0 0 1 2.119 0l3.54 3.54c.58.58.58 1.529 0 2.12l-5.546 5.546a.5.5 0 0 0 0 .707l5.546 5.547z"/></svg>