<svg xmlns="http://www.w3.org/2000/svg" width="139" height="139" viewBox="0 0 139 139"><g fill="#EB2332" fill-rule="evenodd"><path d="M70.438 31.938h-14a3.5 3.5 0 0 0-3.5 3.5v17.5h-17.5a3.5 3.5 0 0 0-3.5 3.5v14a3.5 3.5 0 0 0 3.5 3.5h17.5l21-21v-17.5a3.5 3.5 0 0 0-3.5-3.5M36.5 87.47l7 12.125a3.5 3.5 0 0 0 4.781 1.28l15.156-8.75 8.75 15.156a3.5 3.5 0 0 0 4.781 1.28l12.124-7a3.5 3.5 0 0 0 1.281-4.78l-8.75-15.156-28.686-7.686-15.156 8.75a3.5 3.5 0 0 0-1.28 4.78"/><path d="M101.56 89.094l7-12.125a3.5 3.5 0 0 0-1.28-4.781l-15.156-8.75 8.75-15.155a3.5 3.5 0 0 0-1.28-4.781l-12.125-7a3.5 3.5 0 0 0-4.781 1.281l-8.75 15.155 7.686 28.687 15.156 8.75a3.5 3.5 0 0 0 4.78-1.281M49.439 10.938h-14a3.5 3.5 0 0 0-3.5 3.5v17.5h-17.5a3.5 3.5 0 0 0-3.5 3.5v14a3.5 3.5 0 0 0 3.5 3.5h17.5l21-21v-17.5a3.5 3.5 0 0 0-3.5-3.5m40.128 117.126h14a3.5 3.5 0 0 0 3.5-3.5v-17.5l17.5-.001a3.5 3.5 0 0 0 3.5-3.5v-14a3.5 3.5 0 0 0-3.502-3.5h-17.5l-20.999 21 .001 17.5a3.5 3.5 0 0 0 3.5 3.5M7.472 57.597l-7 12.124a3.5 3.5 0 0 0 1.281 4.78l15.156 8.75-8.75 15.157a3.499 3.499 0 0 0 1.281 4.78l12.124 7a3.5 3.5 0 0 0 4.781-1.28l8.75-15.156-7.686-28.686-15.156-8.75a3.5 3.5 0 0 0-4.78 1.28M131.53 81.407l7-12.125a3.5 3.5 0 0 0-1.282-4.78l-15.156-8.75 8.75-15.156a3.5 3.5 0 0 0-1.282-4.78l-12.124-7a3.5 3.5 0 0 0-4.781 1.281l-8.75 15.156 7.688 28.686 15.156 8.75a3.5 3.5 0 0 0 4.781-1.282M28.817 117.44l7 12.124a3.5 3.5 0 0 0 4.78 1.28l15.157-8.75 8.75 15.157a3.5 3.5 0 0 0 4.78 1.28l12.125-7a3.5 3.5 0 0 0 1.28-4.78l-8.75-15.156-28.685-7.686-15.156 8.75a3.5 3.5 0 0 0-1.281 4.78m81.37-95.875L103.185 9.44a3.5 3.5 0 0 0-4.78-1.281l-15.156 8.75L74.5 1.754a3.5 3.5 0 0 0-4.782-1.28l-12.124 7a3.5 3.5 0 0 0-1.28 4.78l8.75 15.157 28.687 7.685 15.155-8.751a3.5 3.5 0 0 0 1.281-4.781"/></g></svg>